# xmcd
#
# Track frame offsets:
#	180
#	13955
#	28502
#	45255
#	58377
#	77122
#	90807
#	101225
#	109812
#	120740
#	135567
#	148062
#	161890
#	174062
#	193812
#
# Disc length: 2745 seconds
#
# Revision: 1
# Processed by: cddbd v1.5.1PL0 Copyright (c) Steve Scherf et al.
# Submitted via: audiograbber 1.83.01
#
DISCID=c90ab70f
DTITLE=Rodeo - Everblue
DYEAR=1900
DGENRE=
TTITLE0=Rocky Top
TTITLE1=Banko Buster
TTITLE2=I am a Pilgrim
TTITLE3=Fischer´s Hornpipe
TTITLE4=Long Black Veil
TTITLE5=Bye-bye Blues
TTITLE6=Fox on the Run
TTITLE7=Badineri
TTITLE8=Six more Miles
TTITLE9=Down Yonder
TTITLE10=Freight Train
TTITLE11=Roanoke
TTITLE12=Keep on the sunny Sider
TTITLE13=Grandfather´s Clock
TTITLE14=Dixieland
EXTD=
EXTT0=
EXTT1=
EXTT2=
EXTT3=
EXTT4=
EXTT5=
EXTT6=
EXTT7=
EXTT8=
EXTT9=
EXTT10=
EXTT11=
EXTT12=
EXTT13=
EXTT14=
PLAYORDER=
